<svg height="512" viewBox="0 0 56 59" width="512" xmlns="http://www.w3.org/2000/svg"><g id="Page-1" fill="none" fill-rule="evenodd"><g id="047---Delete" fill="rgb(0,0,0)" fill-rule="nonzero"><path id="Shape" d="m52 14c2.209139 0 4-1.790861 4-4s-1.790861-4-4-4h-10.015c.0069744-.22510363-.063637-.44576432-.2-.625l-1-1.247c-2.0830295-2.61627-5.2477806-4.13676492-8.592-4.128h-8.386c-3.3433019-.00843897-6.5070026 1.51208221-8.589 4.128l-1 1.247c-.136363.17923568-.2069744.39989637-.2.625h-10.018c-2.209139 0-4 1.790861-4 4s1.790861 4 4 4zm-35.221-8.622c1.7037142-2.14038517 4.2923379-3.38460414 7.028-3.378h8.386c2.7359121-.00646649 5.3247843 1.23769488 7.029 3.378l.5.622h-23.441z"/><path id="Shape" d="m4 16 3.45 41.22c.22959057 1.1181836 1.26331621 1.8848634 2.4 1.78h36.3c1.1366838.1048634 2.1704094-.6618164 2.4-1.78l3.45-41.22zm15 8c-.5522847 0-1-.4477153-1-1 0-1.1045695-.8954305-2-2-2s-2 .8954305-2 2v27c0 .5522847-.4477153 1-1 1s-1-.4477153-1-1v-27c0-2.209139 1.790861-4 4-4s4 1.790861 4 4c0 .5522847-.4477153 1-1 1zm12 0c-.5522847 0-1-.4477153-1-1 0-1.1045695-.8954305-2-2-2s-2 .8954305-2 2v27c0 .5522847-.4477153 1-1 1s-1-.4477153-1-1v-27c0-2.209139 1.790861-4 4-4s4 1.790861 4 4c0 .5522847-.4477153 1-1 1zm12 0c-.5522847 0-1-.4477153-1-1 0-1.1045695-.8954305-2-2-2s-2 .8954305-2 2v27c0 .5522847-.4477153 1-1 1s-1-.4477153-1-1v-27c0-2.209139 1.790861-4 4-4s4 1.790861 4 4c0 .5522847-.4477153 1-1 1z"/></g></g></svg>